<svg xmlns="http://www.w3.org/2000/svg" width="1600" height="1120" viewBox="0 0 1600 1120" role="img" aria-labelledby="title desc">
  <title id="title">Activity inbound route setup</title>
  <desc id="desc">Swimlane activity diagram for inbound route setup.</desc>
  <defs>
    <style>
      .bg { fill: #f4f7fb; }
      .border { stroke: #b8c6d8; stroke-width: 2; }
      .lane1 { fill: #fdfefe; }
      .lane2 { fill: #f6f9ff; }
      .lane3 { fill: #fdfefe; }
      .title { font: 700 30px Arial, sans-serif; fill: #173a66; }
      .subtitle { font: 400 17px Arial, sans-serif; fill: #60758d; }
      .lane-title { font: 700 21px Arial, sans-serif; fill: #173a66; }
      .box { fill: #eaf3ff; stroke: #2d6cb3; stroke-width: 2.2; rx: 14; ry: 14; }
      .decision { fill: #fff6d9; stroke: #cc9a06; stroke-width: 2.2; }
      .text { font: 600 17px Arial, sans-serif; fill: #16324f; }
      .small { font: 600 15px Arial, sans-serif; fill: #6c7e92; }
      .line { stroke: #4c647c; stroke-width: 2.4; fill: none; marker-end: url(#arrow); }
      .start { fill: #1d4f91; }
      .end1 { fill: #ffffff; stroke: #1d4f91; stroke-width: 3; }
      .end2 { fill: #1d4f91; }
    </style>
    <marker id="arrow" markerWidth="12" markerHeight="12" refX="10" refY="6" orient="auto">
      <path d="M0,0 L12,6 L0,12 z" fill="#4c647c"/>
    </marker>
  </defs>
  <rect class="bg" width="1600" height="1120"/>
  <text class="title" x="800" y="55" text-anchor="middle">Activity Diagram: Thiết lập inbound route</text>
  <text class="subtitle" x="800" y="85" text-anchor="middle">Swimlane giúp đọc rõ từ bước tạo route đến lúc route sẵn sàng hoạt động</text>

  <rect class="lane1 border" x="70" y="120" width="420" height="930"/>
  <rect class="lane2 border" x="490" y="120" width="480" height="930"/>
  <rect class="lane3 border" x="970" y="120" width="560" height="930"/>
  <text class="lane-title" x="280" y="155" text-anchor="middle">Admin</text>
  <text class="lane-title" x="730" y="155" text-anchor="middle">Ops Console</text>
  <text class="lane-title" x="1250" y="155" text-anchor="middle">System / Workflow / KB / Fallback</text>

  <circle class="start" cx="280" cy="205" r="16"/>
  <rect class="box" x="165" y="245" width="230" height="64"/>
  <text class="text" x="280" y="284" text-anchor="middle">Mở màn hình tạo route</text>

  <rect class="box" x="590" y="245" width="280" height="64"/>
  <text class="text" x="730" y="284" text-anchor="middle">Hiển thị wizard cấu hình route</text>

  <rect class="box" x="145" y="360" width="270" height="78"/>
  <text class="text" x="280" y="392" text-anchor="middle">Nhập tên route, queue, extension</text>
  <text class="text" x="280" y="416" text-anchor="middle">và mô tả nghiệp vụ</text>

  <rect class="box" x="580" y="360" width="300" height="78"/>
  <text class="text" x="730" y="392" text-anchor="middle">Tải danh sách workflow inbound, KB</text>
  <text class="text" x="730" y="416" text-anchor="middle">và fallback khả dụng</text>

  <rect class="box" x="1110" y="360" width="280" height="78"/>
  <text class="text" x="1250" y="392" text-anchor="middle">Trả dữ liệu tham chiếu</text>
  <text class="text" x="1250" y="416" text-anchor="middle">cho inbound route</text>

  <rect class="box" x="150" y="505" width="260" height="78"/>
  <text class="text" x="280" y="537" text-anchor="middle">Chọn workflow, KB</text>
  <text class="text" x="280" y="561" text-anchor="middle">và fallback phù hợp</text>

  <rect class="box" x="580" y="505" width="300" height="78"/>
  <text class="text" x="730" y="537" text-anchor="middle">Tổng hợp review trước khi tạo route</text>
  <text class="text" x="730" y="561" text-anchor="middle">và kiểm tra tính đầy đủ dữ liệu</text>

  <polygon class="decision" points="730,650 810,710 730,770 650,710"/>
  <text class="text" x="730" y="702" text-anchor="middle">Route</text>
  <text class="text" x="730" y="726" text-anchor="middle">đã hợp lệ?</text>

  <rect class="box" x="150" y="665" width="260" height="72"/>
  <text class="text" x="280" y="705" text-anchor="middle">Bổ sung hoặc sửa lại thông tin</text>

  <rect class="box" x="1075" y="665" width="350" height="72"/>
  <text class="text" x="1250" y="705" text-anchor="middle">Validate queue, extension và reference</text>

  <rect class="box" x="170" y="830" width="220" height="64"/>
  <text class="text" x="280" y="869" text-anchor="middle">Bấm tạo route</text>

  <rect class="box" x="590" y="830" width="280" height="64"/>
  <text class="text" x="730" y="869" text-anchor="middle">Gửi yêu cầu lưu route</text>

  <rect class="box" x="1085" y="830" width="330" height="64"/>
  <text class="text" x="1250" y="869" text-anchor="middle">Lưu route ở trạng thái Draft hoặc Active</text>

  <rect class="box" x="585" y="945" width="290" height="64"/>
  <text class="text" x="730" y="984" text-anchor="middle">Hiển thị route sẵn sàng nhận cuộc gọi</text>

  <circle class="end1" cx="730" cy="1040" r="18"/>
  <circle class="end2" cx="730" cy="1040" r="10"/>

  <path class="line" d="M280 221 L280 245"/>
  <path class="line" d="M395 277 L590 277"/>
  <path class="line" d="M730 309 L730 360"/>
  <path class="line" d="M880 399 L1110 399"/>
  <path class="line" d="M1250 438 L1250 475 L280 475 L280 505"/>
  <path class="line" d="M410 544 L580 544"/>
  <path class="line" d="M730 583 L730 650"/>
  <path class="line" d="M650 710 L410 710"/>
  <path class="line" d="M280 737 L280 770 L730 770"/>
  <path class="line" d="M810 710 L1075 710"/>
  <path class="line" d="M1250 737 L1250 795 L280 795 L280 830"/>
  <path class="line" d="M390 862 L590 862"/>
  <path class="line" d="M870 862 L1085 862"/>
  <path class="line" d="M1250 894 L1250 945 L875 945"/>
  <path class="line" d="M730 1009 L730 1022"/>
  <text class="small" x="545" y="700">Chưa</text>
  <text class="small" x="840" y="700">Rồi</text>
</svg>
